<svg width="36" height="36" viewBox="0 0 36 36" fill="none" xmlns="http://www.w3.org/2000/svg">
<path fill-rule="evenodd" clip-rule="evenodd" d="M7.14648 29.3188C7.36869 30.6565 7.91263 31.8136 8.80294 32.7039C9.88793 33.7889 11.3692 34.3595 13.0905 34.4602C17.3544 34.7099 23.0917 32.0769 27.9294 27.2392C34.72 20.4486 37.1666 11.8855 33.394 8.11296C32.3181 7.03705 30.8525 6.46698 29.1496 6.35925C29.8689 10.6897 27.2165 16.9124 22.0284 22.1004C21.7053 22.4236 21.3782 22.7369 21.0477 23.0401L26.0723 26.3576C25.7487 26.6667 25.422 26.9647 25.0929 27.2517L20.0468 23.9199C19.3633 24.4948 18.6692 25.0275 17.9703 25.5162L23.0522 28.8716C22.6693 29.147 22.2855 29.4075 21.9022 29.6529L16.8052 26.2876C15.9873 26.7993 15.1674 27.2501 14.3548 27.6374L19.4695 31.0144C18.9936 31.2425 18.5226 31.4458 18.059 31.6238L12.9461 28.248C10.8734 29.0565 8.88607 29.4289 7.14648 29.3188Z" fill="black"/>
<path fill-rule="evenodd" clip-rule="evenodd" d="M9.7306 9.8025C12.9388 6.59434 16.5012 4.48264 19.5916 3.59965C22.754 2.69613 24.9633 3.17171 26.1295 4.33785C27.2956 5.50399 27.7712 7.71337 26.8677 10.8757C25.9847 13.9662 23.873 17.5286 20.6648 20.7367C20.3998 21.0017 20.1324 21.2593 19.863 21.5093L6.96848 12.9957C7.77172 11.9129 8.69391 10.8392 9.7306 9.8025ZM5.54038 15.1341C5.33294 15.4823 5.13812 15.8296 4.95605 16.175L16.7898 23.9882C17.1325 23.7504 17.4749 23.5007 17.816 23.2391L5.54038 15.1341ZM19.5124 24.3592C19.1815 24.6249 18.8484 24.8808 18.5138 25.1266L18.514 25.1267C17.7411 25.6946 16.9604 26.2088 16.18 26.667L16.1798 26.6669C15.7869 26.8976 15.394 27.1141 15.0023 27.3161L15.0025 27.3162C14.0482 27.8084 13.1005 28.2145 12.1744 28.5304L12.1743 28.5303C8.37545 29.8261 4.93999 29.6028 2.90224 27.5651C-0.870312 23.7925 1.5763 15.2294 8.36689 8.4388C15.1575 1.64819 23.7206 -0.798413 27.4932 2.97414C31.2657 6.7467 28.8191 15.3098 22.0285 22.1004C21.8589 22.27 21.6882 22.4369 21.5165 22.6011L21.5168 22.6012C20.8614 23.2277 20.1915 23.8143 19.5126 24.3593L19.5124 24.3592ZM13.1296 26.0796C13.5388 25.8954 13.9524 25.6924 14.3685 25.4709L3.89077 18.553C3.75286 18.9288 3.63178 19.2994 3.52775 19.6635C3.5216 19.685 3.51552 19.7065 3.5095 19.728L13.1296 26.0796ZM3.05827 22.5114L10.0563 27.1319C7.2914 27.7618 5.33791 27.2733 4.26595 26.2014C3.48953 25.425 3.01923 24.1861 3.05827 22.5114Z" fill="black"/>
</svg>
